<svg id="Layer_1" data-name="Layer 1" xmlns="http://www.w3.org/2000/svg" viewBox="0 0 594.21 171.26"><defs><style>.cls-1{fill:#0e2c70;}.cls-2{fill:#0131a1;}.cls-3{fill:#386ee5;}.cls-4{fill:#46bbfe;}.cls-5{fill:#5d6f89;}</style></defs><path class="cls-1" d="M276.83,81.78q0,14.14-7.64,21.72t-21.36,7.57H234.12q-16.86,0-23.93-5.86t-7.07-20.28V9.36h43q14.56,0,21.93,7.29t7.35,20.57a21.87,21.87,0,0,1-3.92,13.14,23.57,23.57,0,0,1-8.65,7.71Q276.84,64.64,276.83,81.78ZM244.55,49.07q11,0,11-11t-11-11H223v22ZM257,80.78q0-6.86-2.43-10.35t-8.71-3.5H223v16c0,3.9,1,6.62,2.93,8.14s5.16,2.28,9.64,2.28h10.29Q257,93.35,257,80.78Z"/><path class="cls-1" d="M313.54,111.07l-18.57.14V3.65h18.57Z"/><path class="cls-1" d="M396.25,69.93q0,26.43-10,35.42-8.43,7.71-24.43,7.72-20.43,0-27.57-12-6.71-11-6.71-31.14,0-18.86,6.71-29.57,7.44-12,27.07-12t27.29,10.5Q396.25,49.36,396.25,69.93Zm-18.57,4.28V66.78q0-10.56-3.07-16.14t-12.79-5.57q-15.7,0-15.71,21.14v7.43q0,22.71,15.71,22.71,10.14,0,13.29-7.57A37,37,0,0,0,377.68,74.21Z"/><path class="cls-1" d="M473.81,69.93q0,26.43-10,35.42-8.43,7.71-24.42,7.72-20.43,0-27.57-12-6.72-11-6.72-31.14,0-18.86,6.72-29.57,7.43-12,27.07-12t27.28,10.5Q473.8,49.36,473.81,69.93Zm-18.57,4.28V66.78q0-10.56-3.07-16.14t-12.78-5.57q-15.72,0-15.72,21.14v7.43q0,22.71,15.72,22.71,10.14,0,13.28-7.57A36.81,36.81,0,0,0,455.24,74.21Z"/><path class="cls-1" d="M593.8,111.07H575.23V60.36q0-7.57-1.78-10.57c-1.19-2-3.27-3-6.22-3l-16.71,7v57.28H532V60.36q0-13.57-9.43-13.57l-15.28,7v57.28H488.67V29.5h13.85l4.29,9.71,21.43-10.57q11.14,0,16.85,10.86l26.57-10.86q11.15,0,16.64,7.5t5.5,20.22Z"/><path class="cls-2" d="M114.67,72.39a41.62,41.62,0,0,0-17.1.18A41.58,41.58,0,1,0,50,126.41a57.93,57.93,0,0,0,7.18,17.3,58.09,58.09,0,0,1,0-116.17h.94a58.22,58.22,0,0,1,56.57,44.86Z"/><path class="cls-3" d="M164.65,58.1a58.16,58.16,0,0,1-57.16,58.08h-.94A58.22,58.22,0,0,1,89,113.47a41.7,41.7,0,0,0,8.62-14.78,41.53,41.53,0,0,0,9,1,41,41,0,0,0,8.12-.8,41.57,41.57,0,1,0-39-68.61,57.91,57.91,0,0,0-17.6-2.73h-.94A58.08,58.08,0,0,1,164.65,58.1Z"/><path class="cls-4" d="M164.65,113.16A58.11,58.11,0,1,1,66.94,70.72a41.47,41.47,0,0,0,8.5,14.91,41.56,41.56,0,1,0,70.73,14.92A58.33,58.33,0,0,0,157.7,85.63,57.76,57.76,0,0,1,164.65,113.16Z"/><path class="cls-5" d="M213.24,169.46h-7.37V131.69h7.37Z"/><path class="cls-5" d="M281.09,138.27H271v31.19h-7.37V138.27H253.51v-6.58h27.58Z"/><path class="cls-5" d="M392.66,138.27H382.53v31.19h-7.37V138.27H365.08v-6.58h27.58Z"/><path class="cls-5" d="M457.76,169.46H444.39q-6.37,0-8.94-2.2c-1.72-1.47-2.57-4.06-2.57-7.77v-27.8h24.88v6.58H440.25v8.85h12.26L452,153.7H440.25V159a3.86,3.86,0,0,0,1,3.07,5.81,5.81,0,0,0,3.66.85h12.84Z"/><path class="cls-5" d="M518.55,154.82h6.85q0,7.22-3.61,11.08t-10.19,3.88q-14.48,0-14.48-17v-3.19q0-13.41,7.43-16.81a16.38,16.38,0,0,1,7.05-1.38,14.42,14.42,0,0,1,9.85,3.31q3.78,3.31,3.79,9.58h-6.9a9.28,9.28,0,0,0-2.07-4.72A6.11,6.11,0,0,0,511.6,138a6.54,6.54,0,0,0-5.51,2.33q-1.27,1.65-1.49,5.62c-.07.85-.1,2-.1,3.45v3.29q0,6.11,1.69,8.33t5.44,2.23q3.69,0,5.09-2A13.74,13.74,0,0,0,518.55,154.82Z"/><path class="cls-5" d="M594.21,169.46h-7.38V154.18H573v15.28h-7.38V131.69H573v16h13.84v-16h7.38Z"/></svg>